ply
format ascii 1.0
element vertex 54
property float x
property float y
property float z
property float u
property float v
property float nx
property float ny
property float nz
element face 48
property list uchar int vertex_indices
end_header
-2.5 -2.5 -147.656 0 0 0 0 1
0 -2.5 -147.656 0.5 0 0 0 1
2.5 -2.5 -147.656 1 0 0 0 1
-2.5 0 -147.656 0 0.5 0 0 1
0 0 -147.656 0.5 0.5 0 0 1
2.5 0 -147.656 1 0.5 0 0 1
-2.5 2.5 -147.656 0 1 0 0 1
0 2.5 -147.656 0.5 1 0 0 1
2.5 2.5 -147.656 1 1 0 0 1
2.5 -2.5 -147.656 0 0 1 0 0
2.5 -2.5 0 0.5 0 1 0 0
2.5 -2.5 147.656 1 0 1 0 0
2.5 0 -147.656 0 0.5 1 0 0
2.5 0 0 0.5 0.5 1 0 0
2.5 0 147.656 1 0.5 1 0 0
2.5 2.5 -147.656 0 1 1 0 0
2.5 2.5 0 0.5 1 1 0 0
2.5 2.5 147.656 1 1 1 0 0
-2.5 -2.5 147.656 0 0 -1 0 0
-2.5 -2.5 0 0.5 0 -1 0 0
-2.5 -2.5 -147.656 1 0 -1 0 0
-2.5 0 147.656 0 0.5 -1 0 0
-2.5 0 0 0.5 0.5 -1 0 0
-2.5 0 -147.656 1 0.5 -1 0 0
-2.5 2.5 147.656 0 1 -1 0 0
-2.5 2.5 0 0.5 1 -1 0 0
-2.5 2.5 -147.656 1 1 -1 0 0
2.5 -2.5 147.656 0 0 0 0 -1
0 -2.5 147.656 0.5 0 0 0 -1
-2.5 -2.5 147.656 1 0 0 0 -1
2.5 0 147.656 0 0.5 0 0 -1
0 0 147.656 0.5 0.5 0 0 -1
-2.5 0 147.656 1 0.5 0 0 -1
2.5 2.5 147.656 0 1 0 0 -1
0 2.5 147.656 0.5 1 0 0 -1
-2.5 2.5 147.656 1 1 0 0 -1
-2.5 -2.5 147.656 0 0 0 -1 0
0 -2.5 147.656 0.5 0 0 -1 0
2.5 -2.5 147.656 1 0 0 -1 0
-2.5 -2.5 0 0 0.5 0 -1 0
0 -2.5 0 0.5 0.5 0 -1 0
2.5 -2.5 0 1 0.5 0 -1 0
-2.5 -2.5 -147.656 0 1 0 -1 0
0 -2.5 -147.656 0.5 1 0 -1 0
2.5 -2.5 -147.656 1 1 0 -1 0
-2.5 2.5 -147.656 0 0 0 1 0
0 2.5 -147.656 0.5 0 0 1 0
2.5 2.5 -147.656 1 0 0 1 0
-2.5 2.5 0 0 0.5 0 1 0
0 2.5 0 0.5 0.5 0 1 0
2.5 2.5 0 1 0.5 0 1 0
-2.5 2.5 147.656 0 1 0 1 0
0 2.5 147.656 0.5 1 0 1 0
2.5 2.5 147.656 1 1 0 1 0
3 0 1 3
3 1 4 3
3 1 2 4
3 2 5 4
3 3 4 6
3 4 7 6
3 4 5 7
3 5 8 7
3 9 10 12
3 10 13 12
3 10 11 13
3 11 14 13
3 12 13 15
3 13 16 15
3 13 14 16
3 14 17 16
3 18 19 21
3 19 22 21
3 19 20 22
3 20 23 22
3 21 22 24
3 22 25 24
3 22 23 25
3 23 26 25
3 27 28 30
3 28 31 30
3 28 29 31
3 29 32 31
3 30 31 33
3 31 34 33
3 31 32 34
3 32 35 34
3 36 37 39
3 37 40 39
3 37 38 40
3 38 41 40
3 39 40 42
3 40 43 42
3 40 41 43
3 41 44 43
3 45 46 48
3 46 49 48
3 46 47 49
3 47 50 49
3 48 49 51
3 49 52 51
3 49 50 52
3 50 53 52
